<?xml version="1.0" encoding="utf-8"?>
<!-- Generator: Adobe Illustrator 18.1.1, SVG Export Plug-In . SVG Version: 6.00 Build 0)  -->
<svg version="1.1" id="Layer_1" xmlns="http://www.w3.org/2000/svg" xmlns:xlink="http://www.w3.org/1999/xlink" x="0px" y="0px"
	 viewBox="0 0 84 36" enable-background="new 0 0 84 36" xml:space="preserve">
<g>
	<g>
		<path fill="#222D64" d="M55,16.9c0.4-0.3,0.7-0.6,1-1c0.6-0.9,1.1-1.8,1.5-2.8h1.9l-0.1-5.6V4.4l-2.7,2.9h-2.4V3.9h1.6V3h-4.2v0.9
			h1.6v3.4l-4.4,0.1l-0.1-5.3h2.2V0H50v1.3h-1.4V0h-0.9v1.3h-1.4V0h-0.9v2.1h2.2l0.1,5.3l-4.2,0.1l0.1,5.2h-2l-0.1-7.5h-4.6l0.1,7.5
			h-3.1l-1.7,4.9L54,17.3C54.4,17.3,54.8,17.2,55,16.9z M50.5,13.1c-0.5-0.4-0.7-1.1-0.7-1.8c0-1.5,1.1-2.7,2.5-2.7
			c0.7,0,1.4,0.3,1.9,0.8c0.5,0.4,0.7,1,0.7,1.8c0.1,1.4-1,2.5-2.5,2.7C51.7,13.9,51,13.6,50.5,13.1z M41.7,3.4l0-2.4L37,1l0,2.4
			L41.7,3.4z M58.3,15.4c-0.5,1.1-2.2,4.2-4.2,4.2L10,20l6.6,9c0.5-0.1,1-0.3,1.5-0.3c1.7,0,3.5,0.6,5,1.9c0.4,0.4,0.7,0.5,1,0.5
			c0.2,0,0.6-0.1,1-0.5c1.5-1.3,3.2-1.9,5-1.9s3.5,0.6,5,1.9c0.4,0.4,0.7,0.5,1,0.5c0.2,0,0.6-0.1,1-0.5c1.5-1.3,3.2-1.9,5-1.9
			c1.7,0,3.5,0.6,5,1.9c0.4,0.4,0.7,0.5,1,0.5c0.2,0,0.6-0.3,1-0.5c1.5-1.3,3.2-1.9,5-1.9c1.7,0,3.5,0.6,5,1.9
			c0.4,0.4,0.7,0.5,1,0.5c0.2,0,0.6-0.1,1-0.5c1.5-1.3,3.2-1.9,5-1.9c1.2,0,2.5,0.4,3.6,1c0.6-0.4,1-0.9,1.4-1.6l8.7-13L58.3,15.4z
			 M58.7,24.1c-1,0.1-1.9-0.8-1.9-1.8c0-1.6,2-2.5,3.1-1.4c0.4,0.4,0.6,0.8,0.5,1.3C60.5,23.2,59.7,24.1,58.7,24.1z M66,23
			c-0.4,0.9-1.5,1.4-2.4,1c-1-0.4-1.5-1.6-0.9-2.7c0.6-1,2-1.1,2.9-0.4C66.2,21.5,66.4,22.2,66,23z M69.4,23.9
			c-1-0.4-1.5-1.6-0.9-2.7c0.6-1,2-1.1,2.9-0.4c0.5,0.5,0.6,1.4,0.4,2C71.4,23.8,70.3,24.3,69.4,23.9z"/>
	</g>
</g>
<path fill="#2DA3C6" d="M0.2,36c2,0,3-0.9,3.7-1.5c1.5-1.3,3-1.3,4.4,0c2.4,2,5.2,2,7.6,0c1.5-1.3,3-1.1,4.4,0c2.4,2,5.2,2,7.6,0
	c1.5-1.3,3-1.3,4.4,0c2.4,2,5.2,2,7.6,0c1.5-1.3,3-1.3,4.4,0c2.4,2,5.2,2,7.6,0c1.5-1.3,3-1.3,4.4,0c2.4,2,5.2,2,7.6,0
	c1.5-1.3,3-1.3,4.4,0c2.4,2,5.2,2,7.6,0c1.5-1.3,3-1.3,4.4,0c0.9,0.6,1.9,1.5,3.7,1.5v-2.5c-1,0-1.5-0.4-2.2-1c-2.4-2-5.2-2-7.6,0
	c-1.5,1.3-3,1.3-4.4,0c-2.4-2-5.2-2-7.6,0c-1.5,1.3-3,1.3-4.4,0c-2.4-2-5.2-2-7.6,0c-1.5,1.3-3,1.1-4.4,0c-2.4-2-5.2-2-7.6,0
	c-1.5,1.3-3,1.3-4.4,0c-2.4-2-5.2-2-7.6,0c-1.5,1.3-3,1.3-4.4,0c-2.4-2-5.2-2-7.6,0c-1.5,1.3-3,1.3-4.4,0c-2.4-2-5.2-2-7.6,0
	c-0.7,0.6-1.1,1-2.2,1V36H0.2z"/>
</svg>
