<?xml version="1.0" encoding="utf-8"?>
<!-- Generator: Adobe Illustrator 18.1.1, SVG Export Plug-In . SVG Version: 6.00 Build 0)  -->
<svg version="1.1" id="Layer_1" xmlns="http://www.w3.org/2000/svg" xmlns:xlink="http://www.w3.org/1999/xlink" x="0px" y="0px"
	 viewBox="0 0 84 31" enable-background="new 0 0 84 31" xml:space="preserve">
<path fill="#2DA3C6" d="M0.2,31c2,0,3-0.9,3.7-1.5c1.5-1.3,3-1.3,4.4,0c2.4,2,5.2,2,7.6,0c1.5-1.3,3-1.1,4.4,0c2.4,2,5.2,2,7.6,0
	c1.5-1.3,3-1.3,4.4,0c2.4,2,5.2,2,7.6,0c1.5-1.3,3-1.3,4.4,0c2.4,2,5.2,2,7.6,0c1.5-1.3,3-1.3,4.4,0c2.4,2,5.2,2,7.6,0
	c1.5-1.3,3-1.3,4.4,0c2.4,2,5.2,2,7.6,0c1.5-1.3,3-1.3,4.4,0c0.9,0.6,1.9,1.5,3.7,1.5v-2.5c-1,0-1.5-0.4-2.2-1c-2.4-2-5.2-2-7.6,0
	c-1.5,1.3-3,1.3-4.4,0c-2.4-2-5.2-2-7.6,0c-1.5,1.3-3,1.3-4.4,0c-2.4-2-5.2-2-7.6,0c-1.5,1.3-3,1.1-4.4,0c-2.4-2-5.2-2-7.6,0
	c-1.5,1.3-3,1.3-4.4,0c-2.4-2-5.2-2-7.6,0c-1.5,1.3-3,1.3-4.4,0c-2.4-2-5.2-2-7.6,0c-1.5,1.3-3,1.3-4.4,0c-2.4-2-5.2-2-7.6,0
	c-0.7,0.6-1.1,1-2.2,1V31H0.2z"/>
<g>
	<g>
		<path fill="#222D64" d="M14.9,9.8c1.4,0,2.5-1.1,2.5-2.5c0-1.4-1.1-2.5-2.5-2.5c-1.4,0-2.5,1.1-2.5,2.5
			C12.4,8.6,13.5,9.8,14.9,9.8z M70.3,17.5H30.6l4.2,7.6l0.1,0.3c0.1,0.1,0.4,0.3,0.5,0.4c0.2,0.3,0.5,0.4,0.7,0.4
			c0.1,0,0.5-0.1,0.7-0.4c1.6-1.3,3.4-2,5.2-2s3.6,0.8,5.2,2c0.1,0.1,0.5,0.4,0.7,0.4c0.2,0,0.6-0.3,0.7-0.4c1.6-1.3,3.4-2,5.2-2
			c1.9,0,3.6,0.8,5.2,2c0.2,0.3,0.5,0.4,0.7,0.4c0.1,0,0.5-0.1,0.7-0.4c1.6-1.3,3.4-2,5.2-2s3.6,0.8,5.2,2c0.2,0.3,0.5,0.4,0.7,0.4
			c0.2-0.1,0.5-0.3,0.7-0.4c0.4-0.4,0.7-0.6,1.1-0.9c1.9-1.5,3-3.8,3.1-6.5l0.1-4.1L70.3,17.5z M17.3,0.8l6.1,10.8h-8.6
			c-1.7,0-3.1,1.4-3.1,3.2V15c0,0.1,0,0.1,0.1,0.3l1.4,2.2H8.4l-7-2.8v3.8c0,2.3,0.9,4.4,2.4,6c0.9-0.4,1.6-0.5,2.5-0.5
			c1.9,0,3.6,0.8,5.2,2c0.2,0.3,0.6,0.4,0.7,0.4c0.1,0,0.5-0.1,0.7-0.4c1.6-1.3,3.4-2,5.2-2c1.9,0,3.6,0.8,5.2,2
			c0.2,0.3,0.5,0.4,0.7,0.4c0.1,0,0.5-0.1,0.7-0.4c1.1-1,2.4-1.7,3.6-1.9L25,17.5h-5.4L18.1,15h7.2l5,8.8c0.6,0,1.2,0.1,1.9,0.3
			L18.6,0L17.3,0.8z"/>
	</g>
</g>
</svg>
