<?xml version="1.0" encoding="utf-8"?>
<!-- Generator: Adobe Illustrator 18.1.1, SVG Export Plug-In . SVG Version: 6.00 Build 0)  -->
<svg version="1.1" id="Layer_1" xmlns="http://www.w3.org/2000/svg" xmlns:xlink="http://www.w3.org/1999/xlink" x="0px" y="0px"
	 viewBox="0 0 84 27" enable-background="new 0 0 84 27" xml:space="preserve">
<path fill="#2DA3C6" d="M0.2,27c2,0,3-0.9,3.7-1.5c1.5-1.3,3-1.3,4.4,0c2.4,2,5.2,2,7.6,0c1.5-1.3,3-1.1,4.4,0c2.4,2,5.2,2,7.6,0
	c1.5-1.3,3-1.3,4.4,0c2.4,2,5.2,2,7.6,0c1.5-1.3,3-1.3,4.4,0c2.4,2,5.2,2,7.6,0c1.5-1.3,3-1.3,4.4,0c2.4,2,5.2,2,7.6,0
	c1.5-1.3,3-1.3,4.4,0c2.4,2,5.2,2,7.6,0c1.5-1.3,3-1.3,4.4,0c0.9,0.6,1.9,1.5,3.7,1.5v-2.5c-1,0-1.5-0.4-2.2-1c-2.4-2-5.2-2-7.6,0
	c-1.5,1.3-3,1.3-4.4,0c-2.4-2-5.2-2-7.6,0c-1.5,1.3-3,1.3-4.4,0c-2.4-2-5.2-2-7.6,0c-1.5,1.3-3,1.1-4.4,0c-2.4-2-5.2-2-7.6,0
	c-1.5,1.3-3,1.3-4.4,0c-2.4-2-5.2-2-7.6,0c-1.5,1.3-3,1.3-4.4,0c-2.4-2-5.2-2-7.6,0c-1.5,1.3-3,1.3-4.4,0c-2.4-2-5.2-2-7.6,0
	c-0.7,0.6-1.1,1-2.2,1V27H0.2z"/>
<g>
	<g>
		<path fill="#222D64" d="M31.7,20c1.2,0.2,2.6,0.9,3.7,1.9c0.2,0.2,0.5,0.4,0.7,0.4c0.1,0,0.5-0.1,0.7-0.4c1.6-1.2,3.4-2,5.2-2
			c1.9,0,3.6,0.7,5.2,2c0.1,0.1,0.5,0.4,0.7,0.4c0.2,0,0.6-0.2,0.7-0.4c1.6-1.2,3.4-2,5.2-2c1.9,0,3.6,0.7,5.2,2
			c0.2,0.2,0.5,0.4,0.7,0.4c0.1,0,0.5-0.1,0.7-0.4c1.6-1.2,3.4-2,5.2-2c0.5,0,1,0,1.7,0.1l4.7-5c-3.5,1.6-7.2,2.6-11.1,2.9L31.7,20z
			 M23.5,21.9c0.2,0.2,0.5,0.4,0.7,0.4c0.1,0,0.4-0.1,0.7-0.4c0.9-0.7,1.9-1.2,2.9-1.6l-6.1,0.5C22.3,21,22.8,21.4,23.5,21.9z M27,5
			c1.4,0,2.5-1.1,2.5-2.5C29.5,1.1,28.3,0,27,0s-2.5,1.1-2.5,2.5C24.5,3.9,25.6,5,27,5z M76.1,7c-0.9-1.5-2.7-1.9-4.2-1
			c-3.4,2.1-7.1,3.4-11.1,3.6l-29.3,2.1l-1.7-3.2c-0.5-1-1.5-1.7-2.7-1.7c-1.7,0-3.2,1.4-3.1,3.1c0,0.4,1.2,2.2,1.2,2.2l-11.4,0.9
			c-1.6,0.1-3,1.6-2.9,3.4c0.1,1.7,1.6,3,3.4,2.9l46.9-3.4c5-0.4,9.7-2,14-4.6C76.6,10.3,77,8.5,76.1,7z M8.6,16.2
			c-0.2-2.7,1.9-5.1,4.6-5.5l7.5-0.5l-2.1-3.9c-0.4-0.7-1.2-1.1-2.1-1.1L8,5.6c-1.1,0.1-2.1,1-2.1,2.2v11.9h0.4
			c1.5,0,3.1,0.5,4.5,1.5l-0.1-1.5C9.5,19,8.7,17.7,8.6,16.2z"/>
	</g>
</g>
</svg>
