<?xml version="1.0" encoding="utf-8"?>
<!-- Generator: Adobe Illustrator 18.1.1, SVG Export Plug-In . SVG Version: 6.00 Build 0)  -->
<svg version="1.1" id="Layer_1" xmlns="http://www.w3.org/2000/svg" xmlns:xlink="http://www.w3.org/1999/xlink" x="0px" y="0px"
	 viewBox="0 0 84 28" enable-background="new 0 0 84 28" xml:space="preserve">
<path fill="#2DA3C6" d="M0.2,28c2,0,3-0.9,3.7-1.5c1.5-1.3,3-1.3,4.4,0c2.4,2,5.2,2,7.6,0c1.5-1.3,3-1.1,4.4,0c2.4,2,5.2,2,7.6,0
	c1.5-1.3,3-1.3,4.4,0c2.4,2,5.2,2,7.6,0c1.5-1.3,3-1.3,4.4,0c2.4,2,5.2,2,7.6,0c1.5-1.3,3-1.3,4.4,0c2.4,2,5.2,2,7.6,0
	c1.5-1.3,3-1.3,4.4,0c2.4,2,5.2,2,7.6,0c1.5-1.3,3-1.3,4.4,0c0.9,0.6,1.9,1.5,3.7,1.5v-2.5c-1,0-1.5-0.4-2.2-1c-2.4-2-5.2-2-7.6,0
	c-1.5,1.3-3,1.3-4.4,0c-2.4-2-5.2-2-7.6,0c-1.5,1.3-3,1.3-4.4,0c-2.4-2-5.2-2-7.6,0c-1.5,1.3-3,1.1-4.4,0c-2.4-2-5.2-2-7.6,0
	c-1.5,1.3-3,1.3-4.4,0c-2.4-2-5.2-2-7.6,0c-1.5,1.3-3,1.3-4.4,0c-2.4-2-5.2-2-7.6,0c-1.5,1.3-3,1.3-4.4,0c-2.4-2-5.2-2-7.6,0
	c-0.7,0.6-1.1,1-2.2,1V28H0.2z"/>
<g>
	<g>
		<path fill="#222D64" d="M40.4,2.9l1.1,4.7l3.4-2.9l-2.6-3.2l-1-1.5l-4.1,3l1,1.5L40.4,2.9z M33.2,6.8L22,4.1L21.6,8l11.5,1
			L33.2,6.8z M58.7,8.1L47.1,5.7l-2.9,2.4H58.7z M61.4,8.6v0.9H42.6l-5.1,1.1l-16.7-0.4l-5.2,4.1L74,11.2L61.4,8.6z M12.7,16.6
			l2,4.7c1.1-0.5,2.2-0.9,3.5-0.9c1.7,0,3.5,0.6,5,1.9c0.4,0.4,0.7,0.5,1,0.5c0.2,0,0.6-0.1,1-0.5c1.5-1.3,3.2-1.9,5-1.9
			c1.7,0,3.5,0.6,5,1.9c0.4,0.4,0.7,0.5,1,0.5c0.2,0,0.6-0.1,1-0.5c1.5-1.3,3.2-1.9,5-1.9c1.7,0,3.5,0.6,5,1.9
			c0.4,0.4,0.7,0.5,1,0.5c0.2,0,0.6-0.3,1-0.5c1.5-1.3,3.2-1.9,5-1.9s3.5,0.6,5,1.9c0.4,0.4,0.7,0.5,1,0.5c0.2,0,0.6-0.1,1-0.5
			c1.5-1.3,3.2-1.9,5-1.9c1.4,0,2.7,0.4,3.9,1.3l8-8.5L12.7,16.6z"/>
	</g>
</g>
</svg>
