<?xml version="1.0" encoding="utf-8"?>
<!-- Generator: Adobe Illustrator 18.1.1, SVG Export Plug-In . SVG Version: 6.00 Build 0)  -->
<svg version="1.1" id="Layer_1" xmlns="http://www.w3.org/2000/svg" xmlns:xlink="http://www.w3.org/1999/xlink" x="0px" y="0px"
	 viewBox="0 0 84 63" enable-background="new 0 0 84 63" xml:space="preserve">
<path fill="#2DA3C6" d="M0.2,63c2,0,3-0.9,3.7-1.5c1.5-1.3,3-1.3,4.4,0c2.4,2,5.2,2,7.6,0c1.5-1.3,3-1.1,4.4,0c2.4,2,5.2,2,7.6,0
	c1.5-1.3,3-1.3,4.4,0c2.4,2,5.2,2,7.6,0c1.5-1.3,3-1.3,4.4,0c2.4,2,5.2,2,7.6,0c1.5-1.3,3-1.3,4.4,0c2.4,2,5.2,2,7.6,0
	c1.5-1.3,3-1.3,4.4,0c2.4,2,5.2,2,7.6,0c1.5-1.3,3-1.3,4.4,0c0.9,0.6,1.9,1.5,3.7,1.5v-2.5c-1,0-1.5-0.4-2.2-1c-2.4-2-5.2-2-7.6,0
	c-1.5,1.3-3,1.3-4.4,0c-2.4-2-5.2-2-7.6,0c-1.5,1.3-3,1.3-4.4,0c-2.4-2-5.2-2-7.6,0c-1.5,1.3-3,1.1-4.4,0c-2.4-2-5.2-2-7.6,0
	c-1.5,1.3-3,1.3-4.4,0c-2.4-2-5.2-2-7.6,0c-1.5,1.3-3,1.3-4.4,0c-2.4-2-5.2-2-7.6,0c-1.5,1.3-3,1.3-4.4,0c-2.4-2-5.2-2-7.6,0
	c-0.7,0.6-1.1,1-2.2,1V63H0.2z"/>
<g>
	<g>
		<path fill="#222D64" d="M47.1,49.1l-4.7,2.6H13.6L10,56.9c0.4,0.3,0.9,0.6,1.4,1c0.2,0.1,0.6,0.4,0.9,0.4c0.4,0,0.6-0.1,0.9-0.4
			c1.5-1.4,3.2-2,5.1-2c1.7,0,3.6,0.8,5.1,2c0.2,0.1,0.6,0.4,0.9,0.4c0.4,0,0.6-0.1,0.9-0.4c1.5-1.4,3.2-2,5.1-2
			c1.7,0,3.6,0.8,5.1,2c0.2,0.1,0.6,0.4,0.9,0.4c0.4,0,0.6-0.1,0.9-0.4c1.5-1.4,3.2-2,5.1-2c1.7,0,3.6,0.8,5.1,2
			c0.2,0.1,0.6,0.4,0.9,0.4c0.4,0,0.6-0.3,0.9-0.4c1.5-1.4,3.2-2,5.1-2c1.7,0,3.6,0.8,5.1,2c0.1,0.1,0.2,0.3,0.2,0.1L75,49.1H47.1z
			 M46.1,47.6l0.4-0.3h12.7l-2.6-1.9H40.4l-3.7,2.6L19.8,48l-2,2h23.8L46.1,47.6z M34.9,46.2h1V0h-1v37.7H18.6V39h16.4V46.2z
			 M32.8,3.3L20.2,35.8h12.6V3.3z M37.8,2v41h30L37.8,2z"/>
	</g>
</g>
</svg>
