<?xml version="1.0" encoding="utf-8"?>
<!-- Generator: Adobe Illustrator 18.1.1, SVG Export Plug-In . SVG Version: 6.00 Build 0)  -->
<svg version="1.1" id="Layer_1" xmlns="http://www.w3.org/2000/svg" xmlns:xlink="http://www.w3.org/1999/xlink" x="0px" y="0px"
	 viewBox="0 0 84 31" enable-background="new 0 0 84 31" xml:space="preserve">
<path fill="#2DA3C6" d="M0.2,31c2,0,3-0.9,3.7-1.5c1.5-1.3,3-1.3,4.4,0c2.4,2,5.2,2,7.6,0c1.5-1.3,3-1.1,4.4,0c2.4,2,5.2,2,7.6,0
	c1.5-1.3,3-1.3,4.4,0c2.4,2,5.2,2,7.6,0c1.5-1.3,3-1.3,4.4,0c2.4,2,5.2,2,7.6,0c1.5-1.3,3-1.3,4.4,0c2.4,2,5.2,2,7.6,0
	c1.5-1.3,3-1.3,4.4,0c2.4,2,5.2,2,7.6,0c1.5-1.3,3-1.3,4.4,0c0.9,0.6,1.9,1.5,3.7,1.5v-2.5c-1,0-1.5-0.4-2.2-1c-2.4-2-5.2-2-7.6,0
	c-1.5,1.3-3,1.3-4.4,0c-2.4-2-5.2-2-7.6,0c-1.5,1.3-3,1.3-4.4,0c-2.4-2-5.2-2-7.6,0c-1.5,1.3-3,1.1-4.4,0c-2.4-2-5.2-2-7.6,0
	c-1.5,1.3-3,1.3-4.4,0c-2.4-2-5.2-2-7.6,0c-1.5,1.3-3,1.3-4.4,0c-2.4-2-5.2-2-7.6,0c-1.5,1.3-3,1.3-4.4,0c-2.4-2-5.2-2-7.6,0
	c-0.7,0.6-1.1,1-2.2,1V31H0.2z"/>
<g>
	<g>
		<path fill="#222D64" d="M27.8,0h-6.5v3.4h6.5V0z M33,6.9h8.2l-0.7-2.5H30.1L29,5.5h-7.6L20.6,8l11.1,0.1L33,6.9z M46.4,14.6H59
			l-2.6-1.9H38.8l2.4-2.4h11.6l-2.1-1.5h-17L32.5,10L19,9.9l-2,2.3h16.5l2.4,2.4H16.1v2.7h25.6L46.4,14.6z M47.1,17l-4.7,2.7H13.6
			l-3.5,5.1c0.4,0.3,0.9,0.6,1.4,1c0.2,0.3,0.6,0.4,0.7,0.4c0.1,0,0.5-0.1,0.7-0.4c1.6-1.3,3.4-2,5.2-2c1.9,0,3.6,0.8,5.2,2
			c0.2,0.3,0.5,0.4,0.7,0.4c0.1,0,0.5-0.1,0.7-0.4c1.6-1.3,3.4-2,5.2-2c1.9,0,3.6,0.8,5.2,2c0.2,0.3,0.5,0.4,0.7,0.4
			c0.1,0,0.5-0.1,0.7-0.4c1.6-1.3,3.4-2,5.2-2c1.9,0,3.6,0.8,5.2,2c0.1,0.1,0.5,0.4,0.7,0.4c0.2,0,0.6-0.3,0.7-0.4
			c1.6-1.3,3.4-2,5.2-2c1.9,0,3.6,0.8,5.2,2c0.1,0,0.2,0.1,0.2,0.3L75,17H47.1z"/>
	</g>
</g>
</svg>
